<svg xmlns="http://www.w3.org/2000/svg" viewBox="0 0 1000 1000" width="48" height="48">
<g><path d="M959.6,363.5c0-70.6,0-141.2,0-211.8c0-23.8-5-28.8-28.2-28.8c-108.1,0-216.2,0-324.3,0c-24,0-26.4,2.3-26.4,27.1c-0.1,140.6,0.2,281.2-0.3,421.8c-0.1,17.3,4.8,24.4,23.5,24.3c111.2-0.7,222.5-0.7,333.7,0c17.4,0.1,22.6-5.3,22.4-22.5C959.1,503.5,959.6,433.5,959.6,363.5L959.6,363.5z M644.4,339.8c0.6-8.5-4-18.6,12.4-18.4c70,0.8,140.1,0.8,210.1-0.1c14.8-0.2,14.2,7.1,13.9,17.1c-0.3,9.3,2.3,18.1-13.5,17.5c-35-1.3-70-0.4-105.1-0.4c-35,0-70.1-0.7-105.1,0.3C643.4,356.2,643.7,349.1,644.4,339.8L644.4,339.8z M644.4,221.4c-0.2-8.8-1.8-16.6,12.6-16.4c70.7,0.8,141.3,0.7,212,0.1c14.9-0.1,11.9,8.9,11.8,17.1c-0.1,8,3.7,17.7-11.5,17.3c-35.6-0.9-71.3-0.3-106.9-0.3c-35,0-70.1-0.8-105.1,0.4C641.1,240,644.6,230.2,644.4,221.4L644.4,221.4z M869.2,460.8c-35.6-0.9-71.3-0.3-106.9-0.3c-35,0-70.1-0.8-105.1,0.3c-16,0.5-12.6-9.2-12.8-18.1c-0.2-8.8-1.8-16.6,12.6-16.4c70.7,0.8,141.4,0.7,212,0.1c15-0.1,11.9,8.9,11.8,17.1C880.6,451.5,884.3,461.2,869.2,460.8L869.2,460.8z M85.4,505.8c0.8-50,40.7-89.9,89.1-90.2c49.3-0.4,89.5,39.5,90.7,90.5c0.5,21.2,0.1,42.5,0.1,63.7c0,21.2,0.5,42.5-0.1,63.7c-1.5,49.9-41.7,89.5-90,89.4c-48.3-0.1-88.8-40-89.7-89.7C84.6,590.7,84.7,548.2,85.4,505.8L85.4,505.8z M340.3,639.9c-1.2,46.8-19.3,86-53.3,117.8c-22.3,20.9-48.4,35.4-78.6,41.2c-11.1,2.1-15.6,6.6-14.6,18.3c1.4,15.4-4.6,35.6,3.1,45.2c8.3,10.3,29.2,2.4,44.6,3.2c9.4,0.5,18.7,0,28.1,0.1c14.4,0.1,22.4,6.9,22.1,21.7c-0.3,14.1-8.5,19.8-21.9,19.7c-31.9-0.1-63.7,0-95.6,0c-30.6,0-61.2-0.2-91.9,0.1c-13.9,0.1-23.4-4.6-23.6-19.9c-0.3-16.1,9.2-21.8,24.1-21.6c20.6,0.2,41.3-0.2,61.9,0.3c8.6,0.2,12.4-2,11.9-11.4c-0.7-15.6,3.6-32.6-1.3-46.5c-5.3-14.8-25.4-10.6-38.5-16.4c-63-28.2-99.6-75.3-106.4-144.4c-1.4-14.4-0.6-29,18.8-30.3c18.8-1.2,21.7,11.5,22.7,27c4.1,70.2,64,127.1,129.9,124.2c59-2.6,112.7-59.4,117.1-124c0.6-8.1-0.2-16.5,6.7-22.6c6.8-6,15-6.4,22.9-3.2C337.6,622.3,340.6,630.5,340.3,639.9L340.3,639.9z M441.7,177.4c-32.7,24.6-65.3,49.4-101.3,76.7c0-18.9-0.4-33.6,0.2-48.3c0.3-8.7-2.1-12-11.4-11.9c-19.4,0.3-38.8,0.6-57.9,4.4c-28.5,5.7-48.3,22-58.6,49.5c-11.4,30.3-14.3,62-14.3,93.9c0,13.4-2.6,20-17.3,17.6c-6.1-1-12.5-0.5-18.7-0.1c-7.3,0.5-9.8-2.6-9.7-9.8c0.6-38.2,2.2-76.1,13.6-113c15.7-50.8,54.8-69.9,103.2-75.9c18.6-2.3,37.4-3.8,56-3.5c12.9,0.2,15.8-4.4,15.1-16.2c-0.9-14.3-0.2-28.7-0.2-43.9c9.8-0.6,14.8,6.7,20.9,11.1c26,18.4,51.7,37.2,77.5,55.9C443.6,167.5,450.9,170.5,441.7,177.4L441.7,177.4z M779.4,757.5c-14.5,52.4-49,79.4-109.9,85.7c-19.2,2-38.6,3.3-57.9,3.5c-10.1,0.1-12.9,3.5-12.4,13c0.7,14.2,0.2,28.5,0.2,47.3c-33.8-25-63.7-47.2-93.8-69.3c-5.2-3.8-6.2-6.9-0.6-11.5c30.4-24.6,60.6-49.3,94.4-76.8c0,19,0.4,33.7-0.1,48.4c-0.3,8.7,2.2,12,11.5,11.8c19.4-0.4,38.7-0.8,57.9-4.3c34.2-6.3,55.3-27.2,65.3-59.7c8.6-27.7,11.8-56.3,11.3-85.1c-0.2-13.1,3.5-18.2,16.7-16.3c5.5,0.8,11.3,0.5,16.9,0.1c8.3-0.7,12.4,1.4,12.2,11.1C790.2,689.8,788.6,724.1,779.4,757.5L779.4,757.5z M966.1,626.1c-130.7-0.8-261.3-0.8-392,0c-19.6,0.1-24-6.6-23.9-24.9c0.6-158.8,0.3-317.6,0.4-476.4c0-28.5,3.6-32,32.5-32c126.3,0,252.6,0,378.8,0c25,0,27.7,2.8,27.7,28.3c0,80.6,0,161.3,0,241.9c0,79.4-0.5,158.8,0.4,238.2C990.2,619.6,985.7,626.2,966.1,626.1L966.1,626.1z"/></g>
</svg>
